<mxfile host="app.diagrams.net" modified="2024-04-09T12:40:11.120Z" agent="Mozilla/5.0 (Windows NT 10.0; Win64; x64; rv:124.0) Gecko/20100101 Firefox/124.0" etag="ONRLBAEFkGkVNtlzQA60" version="24.2.2" type="github">
  <diagram name="Страница — 1" id="X06wnp7nVAokPo3tWDg8">
    <mxGraphModel dx="1135" dy="558" grid="1" gridSize="10" guides="1" tooltips="1" connect="1" arrows="1" fold="1" page="1" pageScale="1" pageWidth="827" pageHeight="1169" math="0" shadow="0">
      <root>
        <mxCell id="0" />
        <mxCell id="1" parent="0" />
        <mxCell id="FUN8tiTtdwuKsQ_lvFtK-1" value="" style="endArrow=classic;html=1;rounded=0;" edge="1" parent="1">
          <mxGeometry width="50" height="50" relative="1" as="geometry">
            <mxPoint x="80" y="280" as="sourcePoint" />
            <mxPoint x="760" y="280" as="targetPoint" />
          </mxGeometry>
        </mxCell>
        <mxCell id="FUN8tiTtdwuKsQ_lvFtK-2" value="" style="shape=or;whiteSpace=wrap;html=1;rotation=-90;" vertex="1" parent="1">
          <mxGeometry x="190" y="190" width="60" height="120" as="geometry" />
        </mxCell>
        <mxCell id="FUN8tiTtdwuKsQ_lvFtK-3" value="" style="shape=xor;whiteSpace=wrap;html=1;rotation=90;" vertex="1" parent="1">
          <mxGeometry x="290" y="270" width="40" height="60" as="geometry" />
        </mxCell>
        <mxCell id="FUN8tiTtdwuKsQ_lvFtK-4" value="" style="shape=or;whiteSpace=wrap;html=1;rotation=-90;fillColor=default;" vertex="1" parent="1">
          <mxGeometry x="250" y="190" width="60" height="120" as="geometry" />
        </mxCell>
        <mxCell id="FUN8tiTtdwuKsQ_lvFtK-5" value="" style="shape=xor;whiteSpace=wrap;html=1;rotation=90;" vertex="1" parent="1">
          <mxGeometry x="350" y="270" width="40" height="60" as="geometry" />
        </mxCell>
        <mxCell id="FUN8tiTtdwuKsQ_lvFtK-7" value="" style="shape=xor;whiteSpace=wrap;html=1;rotation=90;" vertex="1" parent="1">
          <mxGeometry x="410" y="270" width="40" height="60" as="geometry" />
        </mxCell>
        <mxCell id="FUN8tiTtdwuKsQ_lvFtK-9" value="" style="shape=xor;whiteSpace=wrap;html=1;rotation=90;" vertex="1" parent="1">
          <mxGeometry x="470" y="270" width="40" height="60" as="geometry" />
        </mxCell>
        <mxCell id="FUN8tiTtdwuKsQ_lvFtK-6" value="" style="shape=or;whiteSpace=wrap;html=1;rotation=-90;fillColor=none;" vertex="1" parent="1">
          <mxGeometry x="310" y="190" width="60" height="120" as="geometry" />
        </mxCell>
        <mxCell id="FUN8tiTtdwuKsQ_lvFtK-8" value="" style="shape=or;whiteSpace=wrap;html=1;rotation=-90;" vertex="1" parent="1">
          <mxGeometry x="370" y="190" width="60" height="120" as="geometry" />
        </mxCell>
        <mxCell id="FUN8tiTtdwuKsQ_lvFtK-10" value="" style="shape=or;whiteSpace=wrap;html=1;rotation=-90;" vertex="1" parent="1">
          <mxGeometry x="430" y="190" width="60" height="120" as="geometry" />
        </mxCell>
        <mxCell id="FUN8tiTtdwuKsQ_lvFtK-11" value="" style="rounded=0;whiteSpace=wrap;html=1;fillColor=#990000;" vertex="1" parent="1">
          <mxGeometry x="330" y="270" width="80" height="10" as="geometry" />
        </mxCell>
        <mxCell id="FUN8tiTtdwuKsQ_lvFtK-12" value="" style="shape=xor;whiteSpace=wrap;html=1;rotation=90;" vertex="1" parent="1">
          <mxGeometry x="530" y="270" width="40" height="60" as="geometry" />
        </mxCell>
        <mxCell id="FUN8tiTtdwuKsQ_lvFtK-13" value="" style="shape=or;whiteSpace=wrap;html=1;rotation=-90;" vertex="1" parent="1">
          <mxGeometry x="490" y="190" width="60" height="120" as="geometry" />
        </mxCell>
        <mxCell id="FUN8tiTtdwuKsQ_lvFtK-14" value="" style="endArrow=classic;html=1;rounded=0;" edge="1" parent="1">
          <mxGeometry width="50" height="50" relative="1" as="geometry">
            <mxPoint x="80" y="480" as="sourcePoint" />
            <mxPoint x="760" y="480" as="targetPoint" />
          </mxGeometry>
        </mxCell>
        <mxCell id="FUN8tiTtdwuKsQ_lvFtK-15" value="" style="shape=or;whiteSpace=wrap;html=1;rotation=-90;" vertex="1" parent="1">
          <mxGeometry x="170" y="390" width="60" height="120" as="geometry" />
        </mxCell>
        <mxCell id="FUN8tiTtdwuKsQ_lvFtK-16" value="" style="shape=xor;whiteSpace=wrap;html=1;rotation=90;" vertex="1" parent="1">
          <mxGeometry x="290" y="470" width="40" height="60" as="geometry" />
        </mxCell>
        <mxCell id="FUN8tiTtdwuKsQ_lvFtK-17" value="" style="shape=or;whiteSpace=wrap;html=1;rotation=-90;fillColor=default;" vertex="1" parent="1">
          <mxGeometry x="230" y="390" width="60" height="120" as="geometry" />
        </mxCell>
        <mxCell id="FUN8tiTtdwuKsQ_lvFtK-18" value="" style="shape=xor;whiteSpace=wrap;html=1;rotation=90;" vertex="1" parent="1">
          <mxGeometry x="350" y="470" width="40" height="60" as="geometry" />
        </mxCell>
        <mxCell id="FUN8tiTtdwuKsQ_lvFtK-19" value="" style="shape=xor;whiteSpace=wrap;html=1;rotation=90;" vertex="1" parent="1">
          <mxGeometry x="410" y="470" width="40" height="60" as="geometry" />
        </mxCell>
        <mxCell id="FUN8tiTtdwuKsQ_lvFtK-20" value="" style="shape=xor;whiteSpace=wrap;html=1;rotation=90;" vertex="1" parent="1">
          <mxGeometry x="470" y="470" width="40" height="60" as="geometry" />
        </mxCell>
        <mxCell id="FUN8tiTtdwuKsQ_lvFtK-21" value="" style="shape=or;whiteSpace=wrap;html=1;rotation=-90;fillColor=none;" vertex="1" parent="1">
          <mxGeometry x="290" y="390" width="60" height="120" as="geometry" />
        </mxCell>
        <mxCell id="FUN8tiTtdwuKsQ_lvFtK-22" value="" style="shape=or;whiteSpace=wrap;html=1;rotation=-90;" vertex="1" parent="1">
          <mxGeometry x="350" y="390" width="60" height="120" as="geometry" />
        </mxCell>
        <mxCell id="FUN8tiTtdwuKsQ_lvFtK-23" value="" style="shape=or;whiteSpace=wrap;html=1;rotation=-90;" vertex="1" parent="1">
          <mxGeometry x="410" y="390" width="60" height="120" as="geometry" />
        </mxCell>
        <mxCell id="FUN8tiTtdwuKsQ_lvFtK-25" value="" style="shape=xor;whiteSpace=wrap;html=1;rotation=90;" vertex="1" parent="1">
          <mxGeometry x="530" y="470" width="40" height="60" as="geometry" />
        </mxCell>
        <mxCell id="FUN8tiTtdwuKsQ_lvFtK-26" value="" style="shape=or;whiteSpace=wrap;html=1;rotation=-90;" vertex="1" parent="1">
          <mxGeometry x="470" y="390" width="60" height="120" as="geometry" />
        </mxCell>
        <mxCell id="FUN8tiTtdwuKsQ_lvFtK-24" value="" style="rounded=0;whiteSpace=wrap;html=1;fillColor=#990000;" vertex="1" parent="1">
          <mxGeometry x="330" y="470" width="120" height="10" as="geometry" />
        </mxCell>
        <mxCell id="FUN8tiTtdwuKsQ_lvFtK-30" value="" style="sketch=0;aspect=fixed;pointerEvents=1;shadow=0;dashed=0;html=1;strokeColor=none;labelPosition=center;verticalLabelPosition=bottom;verticalAlign=top;align=center;fillColor=#00188D;shape=mxgraph.mscae.enterprise.android_phone" vertex="1" parent="1">
          <mxGeometry x="270" y="700" width="30" height="50" as="geometry" />
        </mxCell>
        <mxCell id="FUN8tiTtdwuKsQ_lvFtK-31" value="" style="sketch=0;aspect=fixed;pointerEvents=1;shadow=0;dashed=0;html=1;strokeColor=none;labelPosition=center;verticalLabelPosition=bottom;verticalAlign=top;align=center;fillColor=#00188D;shape=mxgraph.mscae.enterprise.application" vertex="1" parent="1">
          <mxGeometry x="330" y="716" width="50" height="34" as="geometry" />
        </mxCell>
        <mxCell id="FUN8tiTtdwuKsQ_lvFtK-33" value="" style="sketch=0;aspect=fixed;pointerEvents=1;shadow=0;dashed=0;html=1;strokeColor=none;labelPosition=center;verticalLabelPosition=bottom;verticalAlign=top;align=center;fillColor=#00188D;shape=mxgraph.mscae.enterprise.device" vertex="1" parent="1">
          <mxGeometry x="120" y="724" width="50" height="26" as="geometry" />
        </mxCell>
        <mxCell id="FUN8tiTtdwuKsQ_lvFtK-34" value="" style="sketch=0;aspect=fixed;pointerEvents=1;shadow=0;dashed=0;html=1;strokeColor=none;labelPosition=center;verticalLabelPosition=bottom;verticalAlign=top;align=center;fillColor=#00188D;shape=mxgraph.azure.computer" vertex="1" parent="1">
          <mxGeometry x="190" y="705" width="50" height="45" as="geometry" />
        </mxCell>
        <mxCell id="FUN8tiTtdwuKsQ_lvFtK-51" value="&#xa;HTTP&#xa;Wink-analytics&#xa;&#xa;" style="edgeStyle=orthogonalEdgeStyle;rounded=0;orthogonalLoop=1;jettySize=auto;html=1;" edge="1" parent="1" source="FUN8tiTtdwuKsQ_lvFtK-35" target="FUN8tiTtdwuKsQ_lvFtK-44">
          <mxGeometry x="-0.3868" y="45" relative="1" as="geometry">
            <mxPoint as="offset" />
          </mxGeometry>
        </mxCell>
        <mxCell id="FUN8tiTtdwuKsQ_lvFtK-35" value="" style="rounded=1;whiteSpace=wrap;html=1;fillColor=none;" vertex="1" parent="1">
          <mxGeometry x="90" y="660" width="350" height="100" as="geometry" />
        </mxCell>
        <mxCell id="FUN8tiTtdwuKsQ_lvFtK-36" value="Платформы Wink" style="text;html=1;align=center;verticalAlign=middle;whiteSpace=wrap;rounded=0;" vertex="1" parent="1">
          <mxGeometry x="200" y="660" width="120" height="30" as="geometry" />
        </mxCell>
        <mxCell id="FUN8tiTtdwuKsQ_lvFtK-38" value="" style="rounded=1;whiteSpace=wrap;html=1;fillColor=none;" vertex="1" parent="1">
          <mxGeometry x="90" y="840" width="350" height="390" as="geometry" />
        </mxCell>
        <mxCell id="FUN8tiTtdwuKsQ_lvFtK-39" value="Макрорегиональные узлы" style="text;html=1;align=center;verticalAlign=middle;whiteSpace=wrap;rounded=0;" vertex="1" parent="1">
          <mxGeometry x="262" y="850" width="170" height="30" as="geometry" />
        </mxCell>
        <mxCell id="FUN8tiTtdwuKsQ_lvFtK-40" value="" style="sketch=0;aspect=fixed;pointerEvents=1;shadow=0;dashed=0;html=1;strokeColor=none;labelPosition=center;verticalLabelPosition=bottom;verticalAlign=top;align=center;fillColor=#00188D;shape=mxgraph.mscae.enterprise.d" vertex="1" parent="1">
          <mxGeometry x="140" y="900" width="40" height="50" as="geometry" />
        </mxCell>
        <mxCell id="FUN8tiTtdwuKsQ_lvFtK-41" value="" style="sketch=0;aspect=fixed;pointerEvents=1;shadow=0;dashed=0;html=1;strokeColor=none;labelPosition=center;verticalLabelPosition=bottom;verticalAlign=top;align=center;fillColor=#00188D;shape=mxgraph.mscae.enterprise.d" vertex="1" parent="1">
          <mxGeometry x="210" y="900" width="40" height="50" as="geometry" />
        </mxCell>
        <mxCell id="FUN8tiTtdwuKsQ_lvFtK-42" value="" style="sketch=0;aspect=fixed;pointerEvents=1;shadow=0;dashed=0;html=1;strokeColor=none;labelPosition=center;verticalLabelPosition=bottom;verticalAlign=top;align=center;fillColor=#00188D;shape=mxgraph.mscae.enterprise.d" vertex="1" parent="1">
          <mxGeometry x="290" y="900" width="40" height="50" as="geometry" />
        </mxCell>
        <mxCell id="FUN8tiTtdwuKsQ_lvFtK-43" value="" style="sketch=0;aspect=fixed;pointerEvents=1;shadow=0;dashed=0;html=1;strokeColor=none;labelPosition=center;verticalLabelPosition=bottom;verticalAlign=top;align=center;fillColor=#00188D;shape=mxgraph.mscae.enterprise.d" vertex="1" parent="1">
          <mxGeometry x="370" y="900" width="40" height="50" as="geometry" />
        </mxCell>
        <mxCell id="FUN8tiTtdwuKsQ_lvFtK-54" style="edgeStyle=orthogonalEdgeStyle;rounded=0;orthogonalLoop=1;jettySize=auto;html=1;" edge="1" parent="1" source="FUN8tiTtdwuKsQ_lvFtK-44" target="FUN8tiTtdwuKsQ_lvFtK-55">
          <mxGeometry relative="1" as="geometry">
            <mxPoint x="510" y="940" as="targetPoint" />
          </mxGeometry>
        </mxCell>
        <mxCell id="FUN8tiTtdwuKsQ_lvFtK-56" value="&lt;br&gt;syslog&lt;br&gt;Wink-analytics&lt;br&gt;&lt;div&gt;&lt;br&gt;&lt;/div&gt;" style="edgeLabel;html=1;align=center;verticalAlign=middle;resizable=0;points=[];" vertex="1" connectable="0" parent="FUN8tiTtdwuKsQ_lvFtK-54">
          <mxGeometry x="0.0881" y="-1" relative="1" as="geometry">
            <mxPoint x="66" y="9" as="offset" />
          </mxGeometry>
        </mxCell>
        <mxCell id="FUN8tiTtdwuKsQ_lvFtK-44" value="" style="rounded=1;whiteSpace=wrap;html=1;fillColor=none;" vertex="1" parent="1">
          <mxGeometry x="100" y="890" width="329" height="100" as="geometry" />
        </mxCell>
        <mxCell id="FUN8tiTtdwuKsQ_lvFtK-45" value="ngx_http_mirror_modules" style="text;html=1;align=center;verticalAlign=middle;whiteSpace=wrap;rounded=0;" vertex="1" parent="1">
          <mxGeometry x="200" y="960" width="150" height="30" as="geometry" />
        </mxCell>
        <mxCell id="FUN8tiTtdwuKsQ_lvFtK-47" value="" style="rounded=1;whiteSpace=wrap;html=1;fillColor=none;" vertex="1" parent="1">
          <mxGeometry x="100" y="1080" width="329" height="120" as="geometry" />
        </mxCell>
        <mxCell id="FUN8tiTtdwuKsQ_lvFtK-48" value="" style="sketch=0;aspect=fixed;pointerEvents=1;shadow=0;dashed=0;html=1;strokeColor=none;labelPosition=center;verticalLabelPosition=bottom;verticalAlign=top;align=center;fillColor=#00188D;shape=mxgraph.mscae.enterprise.database_server" vertex="1" parent="1">
          <mxGeometry x="180" y="1100" width="38" height="50" as="geometry" />
        </mxCell>
        <mxCell id="FUN8tiTtdwuKsQ_lvFtK-49" value="" style="sketch=0;aspect=fixed;pointerEvents=1;shadow=0;dashed=0;html=1;strokeColor=none;labelPosition=center;verticalLabelPosition=bottom;verticalAlign=top;align=center;fillColor=#00188D;shape=mxgraph.mscae.enterprise.database_server" vertex="1" parent="1">
          <mxGeometry x="328" y="1100" width="38" height="50" as="geometry" />
        </mxCell>
        <mxCell id="FUN8tiTtdwuKsQ_lvFtK-50" value="kafka claster" style="text;html=1;align=center;verticalAlign=middle;whiteSpace=wrap;rounded=0;" vertex="1" parent="1">
          <mxGeometry x="190" y="1160" width="150" height="30" as="geometry" />
        </mxCell>
        <mxCell id="FUN8tiTtdwuKsQ_lvFtK-55" value="SQM" style="sketch=0;aspect=fixed;pointerEvents=1;shadow=0;dashed=0;html=1;strokeColor=none;labelPosition=center;verticalLabelPosition=bottom;verticalAlign=top;align=center;fillColor=#00188D;shape=mxgraph.mscae.enterprise.cluster_server" vertex="1" parent="1">
          <mxGeometry x="550" y="1010" width="40" height="50" as="geometry" />
        </mxCell>
      </root>
    </mxGraphModel>
  </diagram>
</mxfile>
